<svg width="198" height="70" viewBox="0 0 198 70" fill="none" xmlns="http://www.w3.org/2000/svg">
<path d="M54.5693 48H49.0029V36.4219H38.1484V48H32.582V20.9844H38.1484V31.9316H49.0029V20.9844H54.5693V48ZM58.2617 37.7764C58.2617 35.7848 58.6452 34.0098 59.4121 32.4512C60.179 30.8926 61.2799 29.6865 62.7148 28.833C64.1621 27.9795 65.8382 27.5527 67.7432 27.5527C70.4521 27.5527 72.6602 28.3815 74.3672 30.0391C76.0866 31.6966 77.0452 33.9479 77.2432 36.793L77.2803 38.166C77.2803 41.2461 76.4206 43.7201 74.7012 45.5879C72.9818 47.4434 70.6748 48.3711 67.7803 48.3711C64.8857 48.3711 62.5726 47.4434 60.8408 45.5879C59.1214 43.7324 58.2617 41.209 58.2617 38.0176V37.7764ZM63.624 38.166C63.624 40.071 63.9827 41.5306 64.7002 42.5449C65.4176 43.5469 66.4443 44.0479 67.7803 44.0479C69.0791 44.0479 70.0934 43.5531 70.8232 42.5635C71.5531 41.5615 71.918 39.9658 71.918 37.7764C71.918 35.9085 71.5531 34.4613 70.8232 33.4346C70.0934 32.4079 69.0667 31.8945 67.7432 31.8945C66.432 31.8945 65.4176 32.4079 64.7002 33.4346C63.9827 34.4489 63.624 36.026 63.624 38.166ZM85.6113 27.9238L85.7783 30.1689C87.2008 28.4248 89.1243 27.5527 91.5488 27.5527C94.1341 27.5527 95.9092 28.5732 96.874 30.6143C98.2842 28.5732 100.294 27.5527 102.904 27.5527C105.081 27.5527 106.702 28.1898 107.766 29.4639C108.829 30.7256 109.361 32.6305 109.361 35.1787V48H103.98V35.1973C103.98 34.0592 103.758 33.2305 103.312 32.7109C102.867 32.179 102.082 31.9131 100.956 31.9131C99.348 31.9131 98.2347 32.68 97.6162 34.2139L97.6348 48H92.2725V35.2158C92.2725 34.0531 92.0436 33.2119 91.5859 32.6924C91.1283 32.1729 90.349 31.9131 89.248 31.9131C87.7266 31.9131 86.6257 32.5439 85.9453 33.8057V48H80.583V27.9238H85.6113ZM122.739 48.3711C119.795 48.3711 117.396 47.4681 115.54 45.6621C113.697 43.8561 112.775 41.4502 112.775 38.4443V37.9248C112.775 35.9085 113.165 34.1087 113.944 32.5254C114.724 30.9297 115.825 29.7051 117.247 28.8516C118.682 27.9857 120.315 27.5527 122.146 27.5527C124.892 27.5527 127.05 28.4186 128.621 30.1504C130.204 31.8822 130.996 34.3376 130.996 37.5166V39.7061H118.212C118.385 41.0173 118.905 42.0687 119.771 42.8604C120.649 43.652 121.756 44.0479 123.092 44.0479C125.158 44.0479 126.772 43.2995 127.935 41.8027L130.569 44.7529C129.765 45.891 128.677 46.7816 127.304 47.4248C125.931 48.0557 124.409 48.3711 122.739 48.3711ZM122.127 31.8945C121.063 31.8945 120.197 32.2533 119.529 32.9707C118.874 33.6882 118.453 34.7148 118.268 36.0508H125.727V35.624C125.702 34.4365 125.38 33.5212 124.762 32.8779C124.143 32.2223 123.265 31.8945 122.127 31.8945ZM135.356 48V31.8574H132.369V27.9238H135.356V26.9961C135.381 24.4727 136.154 22.5306 137.676 21.1699C139.21 19.7969 141.368 19.1104 144.151 19.1104C145.821 19.1104 147.85 19.4753 150.237 20.2051L149.458 24.6396C148.246 24.2809 147.306 24.0521 146.638 23.9531C145.97 23.8418 145.252 23.7861 144.485 23.7861C141.987 23.7861 140.737 24.8932 140.737 27.1074V27.9238H144.689V31.8574H140.737V48H135.356ZM152.742 48H147.361V27.9238H152.742V48ZM162.112 27.9238L162.279 30.2432C163.714 28.4495 165.638 27.5527 168.05 27.5527C170.177 27.5527 171.761 28.1774 172.8 29.4268C173.839 30.6761 174.371 32.5439 174.396 35.0303V48H169.033V35.1602C169.033 34.0221 168.786 33.1995 168.291 32.6924C167.796 32.1729 166.974 31.9131 165.823 31.9131C164.314 31.9131 163.182 32.5563 162.428 33.8428V48H157.065V27.9238H162.112ZM177.643 37.8135C177.643 34.6839 178.341 32.1914 179.739 30.3359C181.149 28.4805 183.073 27.5527 185.51 27.5527C187.464 27.5527 189.078 28.2826 190.353 29.7422V19.5H195.733V48H190.891L190.631 45.8662C189.295 47.5361 187.576 48.3711 185.473 48.3711C183.11 48.3711 181.211 47.4434 179.776 45.5879C178.354 43.7201 177.643 41.1286 177.643 37.8135ZM183.005 38.2031C183.005 40.0833 183.333 41.5244 183.988 42.5264C184.644 43.5283 185.596 44.0293 186.846 44.0293C188.503 44.0293 189.672 43.3304 190.353 41.9326V34.0098C189.685 32.612 188.528 31.9131 186.883 31.9131C184.298 31.9131 183.005 34.0098 183.005 38.2031Z" fill="white"/>
<path d="M0.866297 33.9049C1.42584 33.3454 2.16975 33.0373 2.96288 33.0373L13.8848 33.0371L12.5505 31.7029C11.9901 31.1432 11.6814 30.3987 11.6814 29.6065C11.6814 27.973 13.0105 26.644 14.6448 26.644C15.4358 26.644 16.1795 26.9522 16.7392 27.5118L23.1281 33.9009C23.5425 34.3136 23.8231 34.8332 23.9397 35.4035C23.9797 35.5987 24 35.7994 24 36C24 36.7935 23.6903 37.539 23.1289 38.0981L16.7404 44.4866C16.1808 45.0471 15.4363 45.3558 14.644 45.3558C13.0105 45.3558 11.6815 44.0267 11.6814 42.3932C11.6813 41.602 11.9894 40.858 12.5491 40.2981L13.8847 38.9625H2.96128C2.16975 38.9625 1.42566 38.6544 0.866251 38.0947C-0.28875 36.9395 -0.28875 35.06 0.866297 33.9049Z" fill="white"/>
</svg>
