<svg width="15" height="14" viewBox="0 0 15 14" fill="none" xmlns="http://www.w3.org/2000/svg">
<path d="M11.3219 13.2414C11.2214 13.2414 11.1205 13.2192 11.0277 13.1743L7.24479 11.3438L3.46191 13.1743C3.369 13.2192 3.26811 13.2414 3.16762 13.2414C3.03381 13.2414 2.90072 13.2021 2.78817 13.125C2.59118 12.9899 2.49046 12.7616 2.52739 12.5337L3.17814 8.51663L0.186163 5.63378C0.0163065 5.47014 -0.0431516 5.2303 0.0320413 5.012C0.107206 4.79374 0.304456 4.63343 0.543393 4.59644L4.72929 3.94849L6.66755 0.335733C6.77804 0.129708 7.0011 0 7.24479 0C7.48848 0 7.71154 0.129735 7.82199 0.335733L9.76025 3.94849L13.9462 4.59644C14.1851 4.63343 14.3824 4.79374 14.4576 5.012C14.5327 5.2303 14.4733 5.47014 14.3034 5.63378L11.3115 8.51658L11.9622 12.5337C11.9991 12.7616 11.8984 12.9899 11.7014 13.1249C11.5889 13.2021 11.4557 13.2414 11.3219 13.2414Z" fill="url(#paint0_linear)"/>
<defs>
<linearGradient id="paint0_linear" x1="9.78555e-08" y1="5.5" x2="14.5" y2="5.5" gradientUnits="userSpaceOnUse">
<stop stop-color="#B34788"/>
<stop offset="1" stop-color="#FC7A7A"/>
</linearGradient>
</defs>
</svg>
