<svg width="24" height="20" viewBox="0 0 24 20" fill="none" xmlns="http://www.w3.org/2000/svg">
<path d="M0.866297 7.90489C1.42584 7.34539 2.16975 7.03728 2.96288 7.03728L13.8848 7.03714L12.5505 5.70289C11.9901 5.14315 11.6814 4.39868 11.6814 3.60654C11.6814 1.973 13.0105 0.644043 14.6448 0.644043C15.4358 0.644043 16.1795 0.952152 16.7392 1.51179L23.1281 7.90085C23.5425 8.31364 23.8231 8.83325 23.9397 9.40348C23.9797 9.59871 24 9.79939 24 9.99996C24 10.7935 23.6903 11.539 23.1289 12.0981L16.7404 18.4866C16.1808 19.0471 15.4363 19.3558 14.644 19.3558C13.0105 19.3558 11.6815 18.0267 11.6814 16.3932C11.6813 15.602 11.9894 14.858 12.5491 14.2981L13.8847 12.9625H2.96128C2.16975 12.9625 1.42566 12.6544 0.866251 12.0947C-0.28875 10.9395 -0.28875 9.06003 0.866297 7.90489Z" fill="white"/>
</svg>
