<svg width="19" height="20" viewBox="0 0 19 20" xmlns="http://www.w3.org/2000/svg" fill="none">
<path d="M13.1226 12.117C15.413 8.8828 14.647 4.40443 11.4128 2.11464C8.17866 -0.175158 3.70029 0.590296 1.41049 3.82501C-0.879306 7.05917 -0.113852 11.537 3.12086 13.8268C5.42926 15.4611 8.48123 15.587 10.916 14.1491L16.2063 19.4077C16.7776 20.009 17.728 20.033 18.3293 19.4618C18.9306 18.8912 18.9546 17.9408 18.384 17.3395C18.3659 17.3203 18.3484 17.3028 18.3293 17.2847L13.1226 12.117ZM7.26219 12.6072C4.70648 12.6078 2.63445 10.5374 2.63281 7.98166C2.63226 5.42595 4.70265 3.35392 7.25891 3.35282C9.81133 3.35173 11.8823 5.41884 11.8872 7.97126C11.8916 10.5275 9.82227 12.6028 7.26547 12.6072C7.26438 12.6072 7.26383 12.6072 7.26219 12.6072Z" fill="#000"/>
</svg>
